<?xml version="1.0" standalone="no"?>
<!DOCTYPE svg PUBLIC "-//W3C//DTD SVG 20010904//EN"
 "http://www.w3.org/TR/2001/REC-SVG-20010904/DTD/svg10.dtd">
<svg version="1.0" xmlns="http://www.w3.org/2000/svg"
 width="200.000000pt" height="200.000000pt" viewBox="0 0 200.000000 200.000000"
 preserveAspectRatio="xMidYMid meet">

<g transform="translate(0.000000,200.000000) scale(0.100000,-0.100000)"
fill="#000000" stroke="none">
<path d="M35 1000 c0 -60 4 -100 10 -100 6 0 9 38 7 100 -2 55 -6 100 -10 100
-4 0 -7 -45 -7 -100z"/>
<path d="M109 1081 c7 -12 10 -32 8 -43 -4 -16 -3 -17 9 -7 20 16 18 33 -7 55
-22 19 -22 19 -10 -5z"/>
<path d="M1118 1060 c2 -22 8 -40 13 -40 5 0 9 18 9 40 0 26 -5 40 -13 40 -9
0 -11 -12 -9 -40z"/>
<path d="M1205 1073 c16 -31 6 -59 -28 -73 -12 -5 -17 -9 -10 -9 6 -1 24 -21
40 -46 15 -25 34 -45 41 -45 13 0 -4 34 -37 73 -13 15 -12 20 7 40 27 28 28
49 4 70 -27 24 -33 21 -17 -10z"/>
<path d="M1466 1050 c3 -8 17 -45 31 -82 14 -38 28 -68 32 -68 4 0 18 30 31
68 12 37 27 71 31 77 13 13 11 27 -3 23 -6 -2 -13 -14 -15 -27 -2 -13 -11 -42
-21 -65 l-19 -41 -21 58 c-12 32 -20 62 -17 67 3 5 -4 8 -15 7 -14 -1 -19 -6
-14 -17z"/>
<path d="M1675 985 l0 -85 48 0 c26 0 47 4 47 8 0 4 -16 6 -35 4 -33 -4 -35
-3 -35 27 0 35 22 50 45 31 12 -10 15 -9 15 7 0 16 -5 19 -30 15 -28 -4 -30
-2 -30 28 0 31 1 32 35 28 22 -2 34 0 32 6 -2 6 -23 12 -48 14 l-44 3 0 -86z"/>
<path d="M1843 1040 c13 -34 27 -40 27 -12 0 27 10 33 32 21 12 -6 18 -19 16
-32 -2 -18 -11 -23 -46 -25 -37 -3 -42 -6 -31 -18 6 -8 9 -27 5 -44 -4 -24 -2
-30 12 -30 15 0 17 7 14 35 -2 21 0 35 6 35 6 0 23 -16 38 -35 37 -49 63 -47
30 2 -23 33 -24 39 -11 53 34 38 -1 80 -66 80 -37 0 -37 0 -26 -30z"/>
<path d="M240 1029 c0 -17 4 -28 10 -24 6 3 10 17 10 31 0 13 -4 24 -10 24 -5
0 -10 -14 -10 -31z"/>
<path d="M304 1044 c21 -20 20 -31 -3 -51 -19 -16 -19 -17 7 -52 14 -20 27
-38 29 -40 2 -2 6 -1 9 2 4 4 -5 22 -19 41 -23 29 -24 36 -12 46 20 16 19 56
-1 64 -24 9 -27 7 -10 -10z"/>
<path d="M449 1050 c-9 -5 -22 -23 -29 -40 -15 -36 -1 -78 33 -99 21 -13 21
-13 5 6 -30 33 -34 80 -9 114 24 32 24 33 0 19z"/>
<path d="M554 1040 c9 -13 16 -40 16 -60 0 -20 -7 -47 -16 -60 -14 -22 -12
-22 10 3 16 17 26 40 26 57 0 17 -10 40 -26 57 -22 25 -24 25 -10 3z"/>
<path d="M715 1044 c4 -11 17 -47 29 -81 11 -35 26 -63 32 -63 15 0 -39 153
-56 158 -9 3 -11 -1 -5 -14z"/>
<path d="M875 980 c0 -79 0 -80 25 -79 14 0 19 3 13 6 -9 3 -13 29 -13 79 0
53 -4 74 -12 74 -9 0 -13 -23 -13 -80z"/>
<path d="M950 1053 c33 -12 50 -37 50 -72 0 -44 -8 -57 -40 -70 -15 -6 -19
-10 -9 -10 9 -1 28 8 43 20 20 16 26 29 26 59 0 30 -6 43 -26 59 -15 12 -34
21 -43 20 -13 0 -14 -1 -1 -6z"/>
<path d="M1350 980 c0 -57 4 -80 13 -80 8 0 12 23 12 80 0 57 -4 80 -12 80 -9
0 -13 -23 -13 -80z"/>
<path d="M131 979 c8 -16 8 -28 0 -45 -13 -30 4 -32 19 -3 9 16 8 26 -5 45
-19 30 -30 32 -14 3z"/>
<path d="M1118 950 c-2 -35 1 -50 10 -50 8 0 12 17 12 50 0 65 -17 65 -22 0z"/>
<path d="M240 940 c0 -22 5 -40 10 -40 6 0 10 18 10 40 0 22 -4 40 -10 40 -5
0 -10 -18 -10 -40z"/>
</g>
</svg>
