<?xml version="1.0" standalone="no"?>
<!DOCTYPE svg PUBLIC "-//W3C//DTD SVG 20010904//EN"
 "http://www.w3.org/TR/2001/REC-SVG-20010904/DTD/svg10.dtd">
<svg version="1.0" xmlns="http://www.w3.org/2000/svg"
 width="214.000000pt" height="214.000000pt" viewBox="0 0 214.000000 214.000000"
 preserveAspectRatio="xMidYMid meet">

<g transform="translate(0.000000,214.000000) scale(0.100000,-0.100000)"
fill="#000000" stroke="none">
<path d="M1055 1849 c-79 -16 -171 -41 -210 -57 -48 -20 -121 -87 -178 -162
-22 -30 -50 -65 -61 -78 -12 -13 -21 -29 -22 -35 -1 -20 -25 -77 -32 -77 -4 0
-18 -20 -31 -45 -13 -25 -28 -45 -32 -45 -5 0 -9 -15 -9 -34 0 -29 -10 -45
-66 -101 -41 -42 -63 -72 -60 -82 3 -8 2 -12 -3 -9 -5 3 -25 -12 -45 -34 -41
-46 -45 -77 -17 -133 26 -51 31 -76 21 -102 -5 -13 -6 -26 -3 -29 3 -3 8 -63
9 -133 2 -71 4 -138 5 -151 1 -15 -12 -35 -37 -58 -24 -22 -27 -27 -10 -15 16
12 31 19 34 16 10 -9 -20 -53 -44 -66 -13 -7 -24 -16 -24 -21 0 -5 -16 -31
-35 -59 -24 -36 -35 -62 -35 -88 0 -47 9 -58 45 -63 l29 -3 -29 -27 c-17 -15
-48 -43 -70 -62 -22 -19 -48 -48 -58 -65 l-18 -31 915 0 c504 0 916 3 916 8 0
11 -48 82 -76 112 -15 17 -20 30 -15 39 5 8 5 26 -1 43 -6 15 -8 35 -5 42 3 8
0 17 -7 19 -8 3 -24 20 -36 37 l-23 32 24 -6 c23 -7 23 -6 5 8 -10 8 -24 17
-30 20 -7 3 -6 8 4 15 13 9 13 11 -2 11 -19 0 -52 43 -61 78 -4 17 -1 23 11
21 38 -3 43 0 32 22 -6 11 -9 35 -5 52 4 21 3 27 -3 19 -14 -20 -22 7 -11 36
9 24 25 29 32 10 8 -23 21 2 23 45 1 23 2 50 3 60 0 10 9 17 20 17 11 0 23 5
26 10 3 6 2 10 -4 10 -7 0 -7 8 0 26 14 38 3 41 -16 5 -17 -33 -35 -33 -35 -1
0 10 -9 39 -20 65 -11 26 -20 69 -20 98 0 30 -9 71 -20 96 -23 50 -28 117 -7
89 8 -9 18 -13 25 -9 9 5 7 13 -9 27 -29 26 -41 51 -82 174 -33 100 -47 151
-53 195 -7 61 -61 130 -112 145 -15 4 -26 13 -24 19 1 7 -1 10 -6 7 -5 -3 -26
10 -47 29 -21 19 -41 35 -45 35 -5 0 -10 5 -12 10 -2 6 -30 16 -63 23 -33 7
-79 25 -102 40 -24 15 -46 26 -50 26 -5 -1 -26 -5 -48 -10z m160 -249 c4 -6
10 -8 15 -5 5 3 30 1 55 -5 47 -10 75 -29 79 -53 1 -6 9 -28 19 -47 18 -39 22
-53 48 -198 10 -57 25 -118 33 -135 20 -45 27 -155 17 -269 -11 -115 -39 -186
-96 -238 -21 -19 -45 -42 -54 -50 -9 -9 -23 -43 -30 -75 -7 -33 -28 -112 -47
-176 -19 -64 -34 -123 -34 -132 0 -24 -27 -21 -35 3 -3 11 -10 20 -15 20 -18
0 -40 -12 -35 -20 3 -4 -2 -13 -9 -19 -12 -10 -23 -6 -57 16 -23 15 -53 35
-66 44 -18 12 -21 18 -11 22 9 4 8 6 -3 6 -18 1 -33 27 -24 42 4 5 -1 23 -9
41 -18 39 -27 106 -16 113 5 3 27 -5 50 -17 33 -18 43 -20 49 -9 7 10 23 12
64 7 50 -7 57 -5 67 13 6 12 7 21 3 21 -4 0 -1 5 7 10 11 7 7 10 -17 10 -22 0
-37 7 -45 20 -7 11 -18 20 -24 20 -11 0 -34 41 -34 60 0 6 10 10 23 11 l22 0
-22 9 c-26 10 -32 50 -8 50 8 0 15 -8 15 -17 0 -17 7 -16 10 2 1 6 6 16 12 23
8 9 6 12 -5 12 -10 0 -14 6 -11 14 3 8 1 17 -5 21 -21 12 -11 25 22 25 61 1
197 37 197 52 0 6 -29 8 -65 6 -36 -1 -65 0 -65 5 0 4 -11 7 -24 7 -13 0 -37
7 -52 15 -16 8 -37 15 -46 15 -10 0 -18 5 -18 11 0 6 7 8 15 5 11 -4 15 0 13
11 -2 11 5 19 17 21 57 9 67 13 61 27 -3 8 -9 23 -13 32 -5 12 -2 15 10 10 18
-7 47 31 47 62 0 11 8 22 18 24 9 3 2 5 -15 6 -31 1 -48 20 -20 22 6 0 3 4 -8
9 -11 5 -15 9 -8 9 17 1 83 -45 76 -53 -6 -5 30 -10 50 -7 5 1 6 -3 2 -8 -3
-6 3 -15 14 -21 17 -9 20 -8 14 6 -5 14 -2 16 20 10 16 -4 27 -2 27 4 0 5 1
13 3 18 1 4 -18 9 -42 12 -60 7 -61 23 -4 36 37 9 50 9 58 -1 6 -8 19 -9 35
-5 23 7 23 8 3 9 -16 1 -20 6 -16 20 5 19 -51 81 -74 81 -6 0 -13 5 -15 10 -2
6 -23 1 -50 -13 -31 -16 -49 -20 -52 -13 -7 17 -27 -16 -22 -36 2 -10 -2 -22
-9 -28 -10 -8 -17 -5 -29 12 -9 12 -16 30 -16 40 0 10 -7 18 -15 18 -8 0 -15
6 -15 13 0 7 -8 17 -18 23 -19 12 -37 0 -37 -25 0 -11 -16 -15 -70 -16 -38 -1
-81 1 -94 4 -24 7 -24 7 10 25 32 16 32 17 6 11 -17 -3 -26 -2 -23 3 7 12 86
32 125 32 16 0 33 5 36 10 6 10 -37 32 -59 29 -22 -3 -36 1 -36 11 0 5 8 7 18
4 13 -5 14 -4 3 4 -8 6 -20 8 -27 5 -16 -6 -3 53 23 104 14 27 27 39 46 41 15
2 27 8 27 13 0 5 5 9 11 9 6 0 17 7 26 15 8 9 29 19 46 22 17 3 32 14 34 24 3
11 9 17 13 14 5 -3 16 -2 25 1 13 5 14 8 3 15 -10 7 -9 9 4 9 9 0 20 -5 23
-10z m-225 -427 c0 -5 -5 -15 -10 -23 -8 -12 -10 -11 -10 8 0 12 5 22 10 22 6
0 10 -3 10 -7z m358 -15 c-2 -6 -10 -14 -16 -16 -7 -2 -10 2 -6 12 7 18 28 22
22 4z m-944 -70 c-3 -13 -13 -31 -22 -41 -15 -16 -14 -17 3 -11 17 7 17 4 -5
-32 -34 -56 -39 -61 -51 -44 -8 12 -9 10 -4 -7 4 -13 2 -23 -4 -23 -15 0 -35
74 -27 105 5 19 11 25 22 21 10 -4 27 5 44 24 34 36 54 40 44 8z m523 6 c-3
-3 -12 -4 -19 -1 -8 3 -5 6 6 6 11 1 17 -2 13 -5z m-587 -24 c0 -5 -4 -10 -10
-10 -5 0 -10 5 -10 10 0 6 5 10 10 10 6 0 10 -4 10 -10z m566 -90 c32 0 66
-18 59 -31 -4 -5 -1 -9 4 -9 6 0 11 -7 11 -15 0 -8 5 -15 10 -15 6 0 10 -5 10
-11 0 -5 -4 -8 -10 -4 -13 8 -47 -28 -44 -48 1 -9 -3 -17 -10 -17 -8 0 -11
-12 -8 -35 3 -21 0 -35 -7 -35 -6 0 -11 -11 -11 -24 0 -36 -16 -40 -29 -8 -7
15 -18 38 -26 52 -20 34 -19 58 4 65 31 9 34 47 6 70 -13 11 -27 32 -30 47 -6
22 -3 27 17 30 12 2 25 0 26 -4 2 -5 15 -8 28 -8z m-41 -250 c3 -5 1 -10 -4
-10 -6 0 -11 5 -11 10 0 6 2 10 4 10 3 0 8 -4 11 -10z m-488 -112 c-3 -8 -6
-5 -6 6 -1 11 2 17 5 13 3 -3 4 -12 1 -19z"/>
<path d="M1231 1301 c-20 -13 -3 -19 64 -22 34 -2 73 -11 90 -21 44 -26 50
-22 13 11 -25 21 -47 30 -93 35 -33 3 -66 2 -74 -3z"/>
<path d="M1020 1260 c0 -5 5 -10 10 -10 6 0 10 5 10 10 0 6 -4 10 -10 10 -5 0
-10 -4 -10 -10z"/>
<path d="M905 1220 c-3 -5 1 -10 9 -10 8 0 18 5 21 10 3 6 -1 10 -9 10 -8 0
-18 -4 -21 -10z"/>
<path d="M1250 988 c0 -32 11 -45 43 -53 16 -4 32 -17 37 -29 12 -30 12 -12
-1 37 -7 30 -18 46 -37 55 -36 17 -42 15 -42 -10z"/>
<path d="M1195 950 c-3 -5 3 -10 15 -10 12 0 18 5 15 10 -3 6 -10 10 -15 10
-5 0 -12 -4 -15 -10z"/>
<path d="M890 819 c0 -5 5 -7 10 -4 6 3 10 8 10 11 0 2 -4 4 -10 4 -5 0 -10
-5 -10 -11z"/>
<path d="M1776 637 c3 -10 9 -15 12 -12 3 3 0 11 -7 18 -10 9 -11 8 -5 -6z"/>
<path d="M1716 462 c-6 -10 51 -72 66 -72 6 0 3 10 -8 23 -36 42 -53 57 -58
49z"/>
</g>
</svg>
