<svg xmlns="http://www.w3.org/2000/svg" width="272.195" height="38.403" viewBox="0 0 272.195 38.403">
  <path id="合体_3" data-name="合体 3" d="M197.467,37.223c-.148-.869-.667-.836-1.722-1.191-.259-.08-.277-.241.038-.209.389.032,1.647.129,2.2.129.316,0,.333-.08.333-.321.019-.371.037-.869.037-1.481h-4.164a9.12,9.12,0,0,0-1.351.081.2.2,0,0,1-.241-.1,1.717,1.717,0,0,1-.166-.354c-.038-.129,0-.144.166-.1a6.626,6.626,0,0,0,1.592.145h4.164c.019-.53.019-1.127.019-1.753h-5.793a9.146,9.146,0,0,0-1.351.079.2.2,0,0,1-.241-.1,1.674,1.674,0,0,1-.166-.354c-.036-.129,0-.145.166-.1a6.627,6.627,0,0,0,1.592.145h5.793v-1.4H194.4a8.835,8.835,0,0,0-1.351.082.2.2,0,0,1-.24-.1,1.586,1.586,0,0,1-.167-.355c-.038-.128,0-.144.167-.1a6.613,6.613,0,0,0,1.591.145h3.979c0-.451.019-.932,0-1.383h-3.72c0,.1.018.194.018.29,0,.4-.111.467-.593.482-.425.016-.628-.08-.592-.482a8.62,8.62,0,0,0-.055-2.847c-.111-.371-.037-.371.148-.291.315.112,1.314.563,1.314.563h3.461c0-.451,0-.868-.018-1.222h-5.793a9.146,9.146,0,0,0-1.351.08.2.2,0,0,1-.241-.1,1.6,1.6,0,0,1-.166-.355c-.039-.128,0-.144.166-.1a6.632,6.632,0,0,0,1.592.145h5.793c0-.482,0-.82-.019-.965-.037-.691-.2-.675.112-.627.148.016,1.147.129,1.425.176.426.081.463.322-.018.467a.394.394,0,0,0-.3.418c0,.16-.019.337-.019.53h5.146a.355.355,0,0,0,.259-.08c.093-.081.536-.627.721-.868.057-.081.113-.1.259,0,.242.161,1.222.885,1.426,1.061.148.13.074.21-.112.21h-7.7c-.018.37-.018.771-.018,1.222h3.406a.305.305,0,0,0,.259-.1c.167-.161.333-.355.426-.451.054-.1.129-.129.3-.016.241.161.741.451.944.612.167.145.221.289-.092.418-.223.113-.334.113-.352.29a12.58,12.58,0,0,0-.02,1.722c.02.4-.185.482-.665.5-.427,0-.536-.1-.5-.5a.674.674,0,0,1,.019-.194h-3.739v1.383h4.054a.287.287,0,0,0,.277-.113c.092-.1.3-.32.39-.434s.165-.144.332-.016c.24.162.759.515.981.676.2.145.278.257-.056.4-.259.113-.369.129-.389.322-.019.29-.037.579-.037.885h.2a.35.35,0,0,0,.258-.081c.093-.08.39-.5.574-.739.056-.08.129-.113.259,0,.2.176.814.8.98.932.149.113.057.21-.11.21h-2.166c-.018.563,0,1.223.037,2.139.038.45-.112.531-.63.546-.48.016-.609-.1-.572-.546V34.15H199.5c0,.547.018,1.078.037,1.545.02.8.056,1.447-1.832,1.706l-.047,0C197.531,37.4,197.484,37.339,197.467,37.223Zm2.036-3.394h4.387c.018-.661.018-1.223.018-1.753h-4.423C199.485,32.67,199.5,33.266,199.5,33.829Zm-.018-2.075h4.423c0-.482-.018-.933-.036-1.4h-4.387Zm0-3.426h3.758a16.146,16.146,0,0,0-.019-1.642H199.5C199.5,27.2,199.485,27.748,199.485,28.328Zm-4.83,0h3.72c0-.58,0-1.127-.019-1.642h-3.683C194.655,27.329,194.636,27.733,194.655,28.328Zm17.389,8.863c-.13-.659-.3-.74-1.463-1.03-.259-.064-.239-.225.038-.209.648.048,1.276.08,1.813.08.315,0,.352-.08.352-.321.056-1.448.075-3.54.039-5.117a15.113,15.113,0,0,1-3.3,4.215c-.167.13-.277-.015-.185-.128a17.534,17.534,0,0,0,3.276-6.145h-1.553a9.152,9.152,0,0,0-1.352.08.2.2,0,0,1-.241-.1,1.659,1.659,0,0,1-.166-.355c-.038-.129,0-.145.166-.1a6.635,6.635,0,0,0,1.593.145h4a.686.686,0,0,0,.351-.193c.112-.081.371-.289.445-.354.131-.113.185-.065.3,0a8.528,8.528,0,0,1,.944.788c.388.337.278.546-.315.515-.37-.016-.5.225-.907.723-.3.371-.684.886-1.074,1.3-.093.1-.259.032-.2-.1a14.858,14.858,0,0,0,.76-2.364h-1.48c-.038,1.834,0,5.373,0,7.239,0,.612.184,1.383-1.63,1.625l-.043,0C212.085,37.4,212.028,37.336,212.044,37.191Zm-112.227,0c-.129-.659-.388-.772-1.554-1.061-.259-.065-.24-.226.037-.21.648.049,1.37.081,1.906.081.315,0,.352-.081.352-.322.093-2.252.037-5.422,0-6.82H99.224a9.045,9.045,0,0,0-1.352.08.2.2,0,0,1-.239-.1,1.718,1.718,0,0,1-.167-.354c-.037-.13,0-.146.167-.1a6.572,6.572,0,0,0,1.591.145h4a.685.685,0,0,0,.352-.194c.111-.08.37-.29.444-.354.13-.113.185-.064.3,0a9.72,9.72,0,0,1,1.036.788c.39.338.185.547-.407.516-.37-.017-.5.225-.907.723-.3.37-.814,1-1.184,1.432-.093.112-.259.031-.2-.1a19.57,19.57,0,0,0,.87-2.493h-1.8c-.036,1.817,0,5.051,0,6.917,0,.612.112,1.383-1.7,1.625l-.043,0C99.859,37.4,99.8,37.336,99.816,37.191Zm140.666-.338c.075-1.608.093-6.725.037-8.043h-2.48a16.35,16.35,0,0,1-.427,3.571,7.38,7.38,0,0,1-3.829,4.793c-.131.064-.371.064-.148-.176a9.193,9.193,0,0,0,2.83-4.81,31.038,31.038,0,0,0,.259-7.577c-.018-.241-.167-.515.112-.371.371.177.869.467,1.351.741a9.168,9.168,0,0,0,3.627-1.641c.131-.113.112-.225.334-.08.277.176.963.595,1.3.852.313.24.13.482-.3.353a.679.679,0,0,0-.555,0,18.518,18.518,0,0,1-4.535.822c0,.917.019,2.042-.017,3.2h3.794c.131,0,.223.015.315-.113.13-.16.537-.627.665-.788.094-.1.168-.1.3,0a15.046,15.046,0,0,1,1.239.949c.167.177.148.274-.13.274h-2.443c-.018,1.271-.056,5.872.036,8.043.019.451-.129.53-.666.546l-.087,0C240.644,37.4,240.466,37.276,240.483,36.853Zm-66.087,0c.075-1.448.093-5.019.075-6.612a12.6,12.6,0,0,1-1.943,1.625c-.223.145-.391,0-.149-.226a12.741,12.741,0,0,0,3.183-4.97c.039-.16.039-.177.223-.129.518.16,1.036.321,1.462.466.314.112.3.337-.073.386-.205.032-.372,0-.482.16-.259.386-.647.917-1.13,1.5-.018,1.512-.055,5.743.039,7.8.017.451-.075.53-.611.546l-.086,0C174.491,37.4,174.379,37.276,174.4,36.853Zm-39.593.113c.093-1.271.112-4.649.112-7.577a18.664,18.664,0,0,1-3.221,4.2c-.093.081-.241,0-.148-.145a20.3,20.3,0,0,0,3.2-6.547h-1.2a9.137,9.137,0,0,0-1.351.08.2.2,0,0,1-.24-.1,1.651,1.651,0,0,1-.167-.354c-.038-.129,0-.145.167-.1a6.622,6.622,0,0,0,1.591.144H134.9c0-1.657-.019-2.83-.038-2.927-.055-.691-.2-.628.13-.628.149,0,.742.081,1.333.177.445.065.481.322-.018.467-.259.08-.223.273-.241.418-.018.241-.038,1.191-.038,2.493h.5a.333.333,0,0,0,.3-.1c.093-.1.5-.595.63-.739a.15.15,0,0,1,.258,0c.277.193.944.755,1.129.916.167.129.131.241-.13.241h-2.684v.611c1,.58,2.092,1.448,2.258,2.22.148.74-.888,1.046-1.054.369a4.765,4.765,0,0,0-1.2-2.283c-.018,3.153,0,7.5.075,9.088.018.37-.055.482-.666.5l-.1,0C134.9,37.4,134.786,37.283,134.8,36.966ZM28.34,37.223c-.185-.419-.519-1.062-.648-1.432-.041-.163.026-.149.129-.135a.613.613,0,0,0,.131.006c.741-.064,1.407-.113,2.074-.194.037-.885.074-2.412.074-4.085H28.508a9.151,9.151,0,0,0-1.352.08.2.2,0,0,1-.24-.1,1.689,1.689,0,0,1-.167-.353c-.036-.129,0-.145.167-.1a6.575,6.575,0,0,0,1.592.145h1.609a60.777,60.777,0,0,0-.184-7.159c-.186-.4-.056-.418.167-.321.629.258,1.462.708,1.462.708h7.421a.349.349,0,0,0,.258-.081c.093-.081.575-.562.8-.8.056-.064.111-.1.259,0,.24.161,1.24.821,1.444,1,.148.128.073.209-.112.209H31.32v1.769h6.755a.332.332,0,0,0,.241-.112c.314-.337.406-.434.647-.676.093-.1.149-.064.259,0,.5.306.981.612,1.333.868.184.129.13.241-.148.241H31.32v1.9h6.755a.335.335,0,0,0,.241-.113c.2-.226.406-.435.647-.676.093-.1.149-.065.259,0,.5.305.981.611,1.333.868.184.129.13.241-.148.241H31.32c0,.676,0,1.48-.019,2.139h8.94a.326.326,0,0,0,.24-.112c.316-.338.464-.531.741-.853.093-.1.148-.064.259,0,.481.322,1.314.853,1.555,1.046.166.13.129.242-.148.242h-8.2a6.822,6.822,0,0,0,2.056,2.7,6.615,6.615,0,0,0,2.571-2.123.153.153,0,0,1,.205-.081c.425.16,1.017.4,1.443.611.352.176.37.385-.111.37a.815.815,0,0,0-.574.1,12.334,12.334,0,0,1-3.294,1.3,11.565,11.565,0,0,0,6.2,1.769c.241.016.222.194,0,.257a1.126,1.126,0,0,0-.87.949c0,.081-.073.178-.278.145-3.626-.707-6.366-1.993-7.736-6h-3c0,1.56.019,3.008.038,3.941,1.074-.145,2.22-.338,3.664-.66.167-.032.371.16.112.257a51.772,51.772,0,0,1-6.108,1.915c-.185.048-.166.176-.185.274-.022.185-.122.291-.237.291A.3.3,0,0,1,28.34,37.223Zm199.52-.145a10.293,10.293,0,0,0,1.37-4.81,30.6,30.6,0,0,0-.148-5.63c-.056-.209-.093-.4.148-.305.333.144.925.4,1.425.643h2.906a.306.306,0,0,0,.277-.112c.111-.113.352-.4.426-.5.112-.129.185-.129.352-.031.223.16.592.418.962.707.167.129.259.321-.074.434-.259.1-.426.08-.426.338,0,1.094,0,2.493.038,3.394,0,.466-.093.563-.668.579-.48.016-.554-.113-.554-.579v-.193h-3.516c0,.338-.019.676-.038.966a7.455,7.455,0,0,1-2.183,5.276.484.484,0,0,1-.277.146C227.767,37.4,227.743,37.271,227.86,37.078Zm2.517-6.371h3.516c.036-1.3,0-3.425,0-3.425h-3.48S230.432,29.1,230.378,30.707ZM58.26,37.223c0-.611-.2-.885-1.258-1.175-.185-.049-.24-.289.093-.241.573.081,1.148.129,1.35.145a.583.583,0,0,0,.667-.354,11.8,11.8,0,0,0,.63-3.6H49.451v.354c0,.418-.167.482-.668.5-.426.016-.61-.08-.591-.5a58.515,58.515,0,0,0,0-7.625c-.13-.354-.056-.37.166-.29.3.129,1.334.595,1.334.595h2.443a5.3,5.3,0,0,0,.352-1.752c0-.081-.037-.129.167-.1.5.1,1.147.257,1.536.369.2.065.2.306-.037.306-.259,0-.389-.015-.537.145a10.712,10.712,0,0,1-1.092,1.029h4.515a.288.288,0,0,0,.278-.113c.075-.1.333-.321.408-.434.093-.1.148-.129.3-.017.24.162.74.484.944.628.185.129.24.289-.111.418-.2.128-.352.128-.352.305-.038.788-.019,1.706.019,3.137.018.418-.167.5-.63.514-.445.016-.611-.1-.592-.514v-.226H49.451v1.319h9.883a.332.332,0,0,0,.3-.1c.093-.1.592-.627.722-.772.093-.1.148-.1.259-.016.3.209.963.788,1.148.965.167.145.13.242-.13.242h-12.2c.019.418.019.851.019,1.3h9.958a.227.227,0,0,0,.221-.08c.13-.1.371-.354.481-.451.111-.112.166-.129.333-.031a7.187,7.187,0,0,1,.907.707c.148.145.111.258-.094.337s-.406.065-.425.321a18.021,18.021,0,0,1-.87,4.071c-.167.419-.685.676-1.443.836a.592.592,0,0,1-.1.01C58.308,37.393,58.26,37.338,58.26,37.223Zm-8.809-8.816h7.865c0-.515.02-.981.02-1.416H49.451Zm0-1.737h7.885c.017-.5,0-.932-.02-1.319H49.469C49.469,25.785,49.451,26.236,49.451,26.671ZM181.67,36.95c.019-.531.019-1.4.036-2.428h-3.552a9.177,9.177,0,0,0-1.352.079.2.2,0,0,1-.239-.1,1.559,1.559,0,0,1-.167-.355c-.039-.128,0-.144.167-.1a6.668,6.668,0,0,0,1.591.144h3.552V32.076h-2.664a9.178,9.178,0,0,0-1.352.079.2.2,0,0,1-.239-.1,1.57,1.57,0,0,1-.167-.354c-.038-.129,0-.145.167-.1a6.613,6.613,0,0,0,1.591.145h2.664c.019-.644,0-1.3,0-1.948H180.1a9.111,9.111,0,0,0-1.351.081.2.2,0,0,1-.24-.1,1.588,1.588,0,0,1-.167-.354c-.039-.129,0-.144.167-.1a6.621,6.621,0,0,0,1.591.144h1.609V27.362h-2.369a9.123,9.123,0,0,0-1.35.08.2.2,0,0,1-.241-.1,1.743,1.743,0,0,1-.167-.354c-.036-.129,0-.144.167-.1a6.618,6.618,0,0,0,1.591.145h2.352c.017-.676,0-1.3,0-1.8h-1.574a8.982,8.982,0,0,0-1.35.08.2.2,0,0,1-.241-.1,1.57,1.57,0,0,1-.167-.354c-.036-.129,0-.145.167-.1a6.577,6.577,0,0,0,1.591.145h1.574c0-.659-.019-1.076-.019-1.126-.056-.691-.2-.627.111-.627.149,0,.778.081,1.351.177.426.064.464.321-.019.466-.259.081-.22.274-.239.418a5.572,5.572,0,0,0-.02.691h2.425a.289.289,0,0,0,.277-.112c.093-.1.352-.386.444-.5s.167-.145.335-.015c.241.16.759.514.98.675.2.145.259.322-.111.466-.241.13-.389.13-.389.321-.019.436-.037.837-.037,1.288h.148c.111,0,.111-.017.184-.08.148-.162.408-.531.554-.741.057-.08.112-.08.185,0,.3.291.76.837.889.95.13.129.019.193-.094.193h-1.868c-.018.611-.018,1.383.037,2.509.019.451-.092.531-.611.547-.481.016-.573-.1-.555-.547v-.065h-2.831c-.018.644-.018,1.3,0,1.948h2.721a.351.351,0,0,0,.259-.081c.093-.08.537-.626.722-.868.057-.081.112-.1.259,0,.241.161,1.221.885,1.425,1.062.148.129.074.21-.111.21h-5.275c-.018.739,0,1.463,0,2.122h3.314a.355.355,0,0,0,.259-.08c.093-.081.536-.628.721-.869.055-.08.111-.1.259,0,.24.162,1.222.886,1.425,1.063.148.129.075.21-.11.21h-5.868c.018.964.036,1.833.056,2.363.019.37,0,.435-.649.5-.065.006-.122.009-.174.009C181.693,37.392,181.653,37.245,181.67,36.95Zm1.147-7.465h2.85c.019-.707.037-1.432.019-2.123h-2.869C182.817,28.022,182.8,28.745,182.817,29.485Zm0-2.444h2.869c0-.676-.019-1.319-.038-1.8h-2.813C182.835,25.721,182.817,26.333,182.817,27.041Zm31.91,10.1c2.628-1.061,3.98-2.268,4.553-4.681h-1.758a9.151,9.151,0,0,0-1.352.08.2.2,0,0,1-.241-.1,1.792,1.792,0,0,1-.167-.354c-.036-.128,0-.145.167-.1a6.638,6.638,0,0,0,1.593.144h1.831a12.561,12.561,0,0,0,.224-1.56c.017-.193-.039-.193.221-.161.409.065.926.226,1.426.323.332.063.426.369-.056.418-.2.016-.37,0-.408.16-.074.274-.148.547-.24.82h2.554a.341.341,0,0,0,.221-.08c.093-.1.389-.418.482-.514.074-.066.129-.066.239.015.185.129.852.547,1,.66.24.144.167.338-.038.434-.3.145-.445.145-.482.37a23.288,23.288,0,0,1-.592,2.7c-.315,1.062-.555,1.48-1.943,1.625-.24.032-.3,0-.333-.161-.13-.691-.518-.771-1.666-1.126-.2-.065-.221-.257.038-.209,1.017.1,1.647.161,2.018.176.536.016.59-.129.721-.434a12,12,0,0,0,.629-3.137h-2.942c-.649,2.51-1.963,4.1-5.646,4.922a.412.412,0,0,1-.077.008C214.515,37.391,214.5,37.228,214.727,37.142Zm-94.315-.193c.074-1.447.092-2.975.092-4.215h-3.923s-.038,1.432.019,2.96c.018.449-.167.531-.686.547-.481.015-.611-.1-.574-.547A10.166,10.166,0,0,0,115.3,32.2c-.185-.418-.074-.4.185-.337.37.145,1.074.435,1.333.547H120.5c0-.773-.018-1.367-.037-1.738h-2.572v.1c0,.434-.148.514-.666.531-.445.015-.611-.1-.555-.531a10.079,10.079,0,0,0-.037-3.154c-.113-.354-.056-.386.166-.306.314.129,1.3.563,1.3.563h5.645a.511.511,0,0,0,.389-.112c.093-.1.26-.257.352-.354s.148-.1.315-.016c.258.129.721.386,1,.546.2.113.24.306-.111.451-.222.13-.371.13-.371.305-.019.676-.019.9.019,1.948.019.434-.148.515-.63.531-.444.015-.592-.1-.573-.5h-2.425c-.019.354-.019.982-.037,1.738h3.98a.32.32,0,0,0,.3-.112c.112-.081.315-.242.445-.355.112-.1.167-.129.352-.016.259.161.666.371.906.531.222.128.315.338-.036.5-.279.129-.464.129-.464.322a13.268,13.268,0,0,0,0,1.383c.019.611.093,1.255-1.48,1.512-.148.017-.222-.016-.241-.145-.055-.676-.628-.724-1.48-1-.2-.063-.259-.24.055-.209.351.033,1.3.081,1.629.081.314,0,.37-.065.37-.306.037-1,.018-.949,0-1.866H121.67c0,1.223.018,2.75.056,4.15.018.37-.019.467-.666.5-.054,0-.1.005-.15.005C120.5,37.389,120.395,37.253,120.412,36.95Zm-2.517-6.6h6.256c.018-.788.018-1.495,0-2.155h-6.256C117.876,29.019,117.876,29.5,117.895,30.353ZM70.749,37.03a12.771,12.771,0,0,0,5.514-5.485,12.63,12.63,0,0,0,1.129-3.33h-4.83a8.881,8.881,0,0,0-1.352.081.2.2,0,0,1-.24-.1,1.969,1.969,0,0,1-.184-.386c-.037-.13,0-.145.166-.1a6.632,6.632,0,0,0,1.592.145h4.923a15.77,15.77,0,0,0,.315-4.457c-.019-.176-.13-.257.148-.224.314.031,1.092.112,1.592.209.314.064.35.289-.149.482-.2.048-.185.306-.2.482-.074.981-.185,2.219-.408,3.507h5.257a.5.5,0,0,0,.371-.145c.166-.177.592-.676.925-1.046.13-.145.167-.113.333,0,.611.4,1.3.932,1.647,1.222.222.193.167.322-.166.322H79.392c1.037,3.715,3.461,6.724,7.5,7.7.166.032.24.241-.094.29-.629.1-.8.241-1.129.868a.221.221,0,0,1-.3.129c-3.961-1.962-5.572-5.131-6.294-8.992h-.388a12.406,12.406,0,0,1-1.147,3.41A11.44,11.44,0,0,1,70.879,37.3a.97.97,0,0,1-.314.071C70.372,37.375,70.4,37.228,70.749,37.03Zm18.611-.1c-.131-.338-.3-.756-.427-1.142-.036-.1-.093-.144.148-.144,1.166-.032,2.388-.129,3.72-.225.019-.563.019-1.464.019-2.527h-1.37a8.979,8.979,0,0,0-1.351.081.2.2,0,0,1-.24-.1,1.581,1.581,0,0,1-.167-.353c-.037-.13,0-.145.167-.1a6.572,6.572,0,0,0,1.591.145h1.37v-2.22H90.988v.355c0,.418-.074.482-.574.5-.426.016-.611-.081-.592-.5a47.25,47.25,0,0,0,0-6.82c-.129-.354-.055-.37.167-.29.3.129,1.24.595,1.24.595h4.239a.293.293,0,0,0,.278-.112c.11-.112.258-.321.37-.434.092-.1.148-.129.3-.016.24.16.758.45.962.595.185.129.24.29-.112.419-.2.128-.351.128-.351.306-.037,1.656-.037,3.522.018,5.485.019.419-.184.5-.648.515-.443.016-.535-.1-.518-.515v-.081H93.875v2.22h1.24c.13,0,.221.015.315-.112.13-.16.535-.627.666-.788.092-.1.166-.1.3,0a14.918,14.918,0,0,1,1.24.949c.166.176.148.273-.13.273H93.875c.019,1,0,1.867.019,2.43,1.314-.129,2.721-.274,3.886-.451.481-.065.445.193.038.29-2.629.627-5.683,1.11-7.514,1.448-.2.032-.389.048-.408.225-.011.2-.132.361-.268.361C89.535,37.2,89.435,37.123,89.36,36.933Zm4.515-6.9h1.906c.019-.868.038-1.85.038-2.719H93.875Zm-2.887,0h1.832V27.313H90.988C90.988,28.214,90.969,29.2,90.988,30.032Zm2.887-3.04h1.944c0-.836-.019-1.625-.038-2.477H93.894C93.894,25.078,93.875,25.914,93.875,26.992Zm-2.887,0h1.832c0-1.078-.019-1.914-.019-2.477H91.007C90.988,25.3,90.988,26.107,90.988,26.992Zm65.241,10.07c-1.407-.515.851-3.443-1.815-3.716-.294-.032-.277-.29,0-.274,1.037.049,1.3.1,1.612-.418.536-.868,2.165-3.876,3.35-6.143.129-.242.369-.1.277.1-1.093,2.445-2.11,4.746-2.684,6.258a3.057,3.057,0,0,0,.13,2.526c.566,1.039.158,1.74-.5,1.74A1.091,1.091,0,0,1,156.229,37.062ZM138.411,36.8c-.092-.337-.258-.868-.351-1.271-.037-.1-.075-.161.148-.144.407.032,1.074.015,1.869,0,1.111-2,1.943-5.18,1.758-6.274-.038-.177.019-.177.185-.145.518.1,1.444.289,1.666.354.407.112.37.386-.057.386-.184,0-.388.064-.425.208a15.29,15.29,0,0,1-2.609,5.454c1.517-.079,3.424-.257,5.071-.482a8.236,8.236,0,0,0-1.24-2.3c-.129-.176-.018-.37.2-.194,1.426,1.175,2.628,2.623,2.739,3.733.075,1-1.129,1.3-1.277.386a9.214,9.214,0,0,0-.315-1.3,52.066,52.066,0,0,1-6.422,1.367c-.2.032-.388.015-.406.193s-.158.336-.284.336C138.567,37.108,138.468,37.022,138.411,36.8Zm29.848-.418c-.131-.418-.241-.869-.445-1.384a72.458,72.458,0,0,1-7.644,1.48c-.333.033-.241.177-.316.371-.092.257-.332.305-.536-.146-.128-.353-.352-.948-.481-1.286-.038-.129-.018-.161.167-.129a10.071,10.071,0,0,0,1.535.032,33.774,33.774,0,0,0,2.184-4.907h-2.073a9.152,9.152,0,0,0-1.352.08.2.2,0,0,1-.241-.1,1.792,1.792,0,0,1-.167-.354c-.036-.13,0-.145.167-.1a6.639,6.639,0,0,0,1.593.144h3c0-.69.019-2.348.019-3.8h-1.722a9.105,9.105,0,0,0-1.35.08.2.2,0,0,1-.241-.1,1.673,1.673,0,0,1-.167-.354c-.038-.13,0-.146.167-.1a6.627,6.627,0,0,0,1.591.144h1.722c0-1.013-.019-1.9-.038-2.138-.055-.692-.2-.677.111-.628.574.08.76.1,1.37.177.426.048.464.321-.018.466-.259.08-.221.273-.241.419s-.018.836-.036,1.7h1.443c.093,0,.185.015.259-.08.13-.146.537-.628.722-.869.056-.079.113-.1.26,0,.239.162,1.221.885,1.425,1.062.148.129.074.21-.111.21h-4c0,1.4.018,3.12.018,3.8h2.554a.333.333,0,0,0,.241-.112c.314-.338.5-.546.778-.868.092-.1.148-.065.259,0,.48.321,1.22.868,1.461,1.061.167.129.131.241-.147.241H164.3a32.775,32.775,0,0,1-3.221,4.907c2-.112,4.886-.418,6.589-.66a9.025,9.025,0,0,0-1.74-2.462c-.184-.193-.093-.434.167-.274,1.87,1.222,3.4,2.944,3.628,4.118a.829.829,0,0,1-.749,1C168.7,37.049,168.412,36.86,168.26,36.387ZM46.748,36.322a15.1,15.1,0,0,0-.037-2.59c-.037-.321-.2-.467.13-.419.24.032.759.1,1.314.194.481.079.517.321,0,.482-.222.065-.278.065-.278.338,0,.176-.018.724,0,1.3h3.092c.018-1.158.037-2.027-.019-2.525-.074-.691-.2-.676.112-.628.462.065,1.037.13,1.388.177.445.065.463.322,0,.467-.277.08-.259.273-.259.418-.018.628-.018,1.3,0,2.092h3.2a10.787,10.787,0,0,0-.055-1.9c-.038-.321-.2-.467.129-.419.24.032.685.1,1.24.194.481.079.518.321,0,.482-.222.065-.2.065-.2.338,0,.257-.019,1.013.018,1.8.018.482-.055.53-.629.578-.536.049-.554-.1-.517-.578a.594.594,0,0,1,.018-.177H47.876a2.42,2.42,0,0,0,.019.37c.019.482-.055.531-.629.579-.064.006-.121.009-.172.009C46.726,36.91,46.715,36.747,46.748,36.322Zm61.887-5.775a.9.9,0,0,1,.906-.885.917.917,0,0,1,.926.885.906.906,0,0,1-.926.885A.889.889,0,0,1,108.635,30.547Zm-42.917,0a.9.9,0,0,1,.906-.885.917.917,0,0,1,.925.885.905.905,0,0,1-.925.885A.889.889,0,0,1,65.718,30.547Zm72.379.37a10.125,10.125,0,0,0,2.092-6.177c-.038-.177.018-.177.185-.145.518.112,1.351.337,1.573.4.388.129.369.4-.057.385-.185,0-.425.05-.444.194a9.411,9.411,0,0,1-3.146,5.518.186.186,0,0,1-.116.052A.139.139,0,0,1,138.1,30.917Zm77.741-.194a13.749,13.749,0,0,0,4.46-2.235,9.1,9.1,0,0,1-1.758-2.461,7.906,7.906,0,0,1-2.074,1.4c-.2.1-.278-.065-.093-.21a6.782,6.782,0,0,0,2.5-3.8c.018-.321.073-.24.185-.225.444.081,1.277.274,1.665.386.26.081.277.274-.092.354-.223.049-.409.032-.536.21-.223.32-.446.626-.686.932h3.552c.131,0,.224.017.316-.112.13-.161.536-.627.667-.788.093-.1.166-.1.3,0a14.581,14.581,0,0,1,1.24.949c.167.176.149.274-.129.274h-1.537a8.565,8.565,0,0,1-2.258,3.121,12.249,12.249,0,0,0,4.165,1.157c.24.015.314.113.093.209-.518.225-.8.483-.815.821,0,.1-.018.193-.314.1a12.143,12.143,0,0,1-3.776-1.786,13.6,13.6,0,0,1-4.961,1.947.5.5,0,0,1-.1.012C215.631,30.977,215.581,30.808,215.838,30.723Zm2.962-4.971a6.334,6.334,0,0,0,2,2.3,6.328,6.328,0,0,0,1.647-2.653h-3.313C219.022,25.529,218.91,25.641,218.8,25.753Zm-71.949,4.907c-2.146-1.721-2.406-4.536-2.628-6.193h-.943a2.6,2.6,0,0,0-.685.08.2.2,0,0,1-.241-.1,1.7,1.7,0,0,1-.166-.354c-.037-.129,0-.144.166-.1a2.475,2.475,0,0,0,.926.145h.333a.374.374,0,0,0,.24-.049c.148-.129.315-.338.426-.45.074-.081.111-.065.258,0s.76.418.982.546c.2.113.111.241-.037.322a6.838,6.838,0,0,1-.759.289c.463,2.509,1.2,3.685,3.35,4.617.074.032.13.16,0,.21a1.338,1.338,0,0,0-1.019.964.142.142,0,0,1-.129.087A.137.137,0,0,1,146.851,30.659Zm8.637-1.319c-.389-.4-.278-1.143-1.629-2.028-.222-.144-.074-.257.167-.193,1.72.419,2.591,1.11,2.646,1.753a.643.643,0,0,1-.645.707A.762.762,0,0,1,155.489,29.341Zm-42.148-1.464c.26-.691,1.352-.691,1.371-2.316,0-.274.258-.355.332-.032a5.645,5.645,0,0,1,.131.676h5.312c.037-.853.018-2.027-.019-2.4-.074-.691-.2-.659.111-.626.537.048.8.1,1.371.176.426.064.463.321-.019.466-.259.08-.241.274-.241.418-.018.419-.037,1.207-.018,1.964h1.536a6.778,6.778,0,0,0,1.462-2.494c.036-.112-.075-.257.13-.209.425.112,1.036.305,1.462.434.3.1.481.37-.074.418a.473.473,0,0,0-.389.162,8.925,8.925,0,0,1-2.165,1.689h3.424a.362.362,0,0,0,.277-.1c.112-.08.408-.29.482-.355.129-.112.167-.08.3,0,.24.161.834.564,1.147.789.408.289.185.643-.407.579-.685-.08-1.426.6-2.2.981-.148.081-.259,0-.166-.129a12.968,12.968,0,0,0,.925-1.447h-12.2c.056.868-.11,1.817-.906,2.108a1.181,1.181,0,0,1-.4.073A.563.563,0,0,1,113.341,27.877Zm-12.451.337a3.484,3.484,0,0,0-1.647-2.123c-.2-.129-.019-.257.166-.193a6.716,6.716,0,0,1,1.925.885A15.179,15.179,0,0,0,103,24.547H99.595a9,9,0,0,0-1.352.081.2.2,0,0,1-.24-.1,1.651,1.651,0,0,1-.166-.354c-.037-.129,0-.144.166-.1a6.626,6.626,0,0,0,1.592.145h3.127a.692.692,0,0,0,.353-.193c.112-.08.37-.29.445-.355.129-.112.184-.064.3,0a11.308,11.308,0,0,1,1.111.788c.389.338.184.563-.408.516-.371-.031-.851.451-1.407.885a18.421,18.421,0,0,1-1.554,1.11,1.332,1.332,0,0,1,.462.724.675.675,0,0,1-.675.769A.509.509,0,0,1,100.89,28.214Zm112.227-.321a4.344,4.344,0,0,0-1.85-2.123c-.2-.113-.038-.257.167-.194a7.171,7.171,0,0,1,2.147.982,11.918,11.918,0,0,0,1.517-2.011h-3.462a8.974,8.974,0,0,0-1.35.081.2.2,0,0,1-.241-.1,1.709,1.709,0,0,1-.167-.353c-.037-.13,0-.145.167-.1a6.577,6.577,0,0,0,1.591.145H214.8a.693.693,0,0,0,.352-.193c.113-.08.37-.29.445-.355.129-.112.184-.064.3,0a10.642,10.642,0,0,1,1.073.788c.389.338.185.563-.407.516-.371-.031-.741.354-1.277.757-.61.466-1.019.739-1.462,1.029a1.161,1.161,0,0,1,.371.611.638.638,0,0,1-.618.76A.541.541,0,0,1,213.117,27.893Zm-40.665-.547a9.554,9.554,0,0,0,2.905-3.973c.018-.113-.018-.226.167-.177.685.177,1.314.386,1.553.451.279.1.3.385-.184.4-.221,0-.351.032-.445.177a12.756,12.756,0,0,1-3.849,3.329.249.249,0,0,1-.123.043C172.358,27.6,172.364,27.421,172.453,27.346Zm-15.187-1.383c-.39-.4-.334-1.287-1.63-2.107-.221-.145-.055-.257.166-.193,1.722.5,2.554,1.142,2.629,1.834a.654.654,0,0,1-.656.693A.717.717,0,0,1,157.266,25.962Zm-39.815-.274c-.316-.53-.056-.851-1.093-1.9-.13-.129-.074-.24.166-.16,1.112.385,2.055.949,2.11,1.7a.637.637,0,0,1-1.183.353Zm110.983-1.06a1.63,1.63,0,0,1-.167-.354c-.038-.129,0-.146.167-.1a6.62,6.62,0,0,0,1.592.144H233.3c.13,0,.224.016.316-.112.129-.161.537-.627.665-.788.094-.1.167-.1.3,0a15.094,15.094,0,0,1,1.239.95c.167.176.148.274-.13.274h-5.663a9.018,9.018,0,0,0-1.352.08.567.567,0,0,1-.072.005C228.527,24.729,228.492,24.7,228.434,24.628Zm-71.284-11.16c-.124-.158-.437-.594-.958-1.234-1.006,1.311-1.984,1.985-3.18,1.985a2.77,2.77,0,0,1-2.982-2.7c0-1.29.908-2.08,2.152-2.781a2.494,2.494,0,0,1-1.138-2,2.668,2.668,0,0,1,2.7-2.67,2.307,2.307,0,0,1,2.461,2.276,1.624,1.624,0,0,1-.651,1.317,11.271,11.271,0,0,1-.99.676,16.246,16.246,0,0,1,2.191,1.891,5.915,5.915,0,0,0,.674-1.148c.271-.591.292-.843-.3-.961l-.447-.1v-.6h3.6v.6l-.446.067c-.554.093-.9.4-1.423,1.117-.4.553-.761,1.05-1.12,1.562a15.244,15.244,0,0,1,2.481,3.369l-.161.255A4.413,4.413,0,0,1,157.151,13.468Zm-5.316-2.489a1.844,1.844,0,0,0,1.841,1.933h.02a2.639,2.639,0,0,0,2.011-1.225,14.544,14.544,0,0,0-2.944-2.5A2.116,2.116,0,0,0,151.835,10.978Zm.7-4.9c0,.729.507,1.262,1.445,1.837a2.116,2.116,0,0,0,.759-1.706,1.288,1.288,0,0,0-1.145-1.434h-.019A1.178,1.178,0,0,0,152.532,6.083ZM98.076,7.4c0-3.447,2.194-7.186,6.476-7.186h.019c3.333,0,6.1,2.771,6.1,6.832,0,4.348-2.8,7.231-6.382,7.231C100.614,14.275,98.076,11.283,98.076,7.4Zm2.393-.559c0,3.8,1.557,6.623,4.223,6.623,2.088,0,3.622-1.858,3.622-5.685,0-4.307-1.592-6.751-4.152-6.751h-.02C102.038,1.026,100.469,3.121,100.469,6.839Zm162.853,6.574c-.719-.632-1.13-1.707-1.13-3.437V6.636c0-1.462-.113-1.586-1.338-1.71V4.315h4.61v.611c-1.183.124-1.3.248-1.3,1.71V9.471c0,2.389.831,3.661,2.374,3.661,1.724,0,2.448-1.491,2.448-3.776V8.375a15.812,15.812,0,0,0-.143-2.6c-.1-.525-.491-.768-1.48-.85V4.315H271.2v.611c-.8.061-1.169.33-1.256.85a17.33,17.33,0,0,0-.141,2.6V9.628a5.018,5.018,0,0,1-1.079,3.482,3.756,3.756,0,0,1-2.794,1.109A3.9,3.9,0,0,1,263.322,13.414Zm-10.356.074c-.1-.353-.316-1.6-.485-2.692l.6-.084c.344,1.108,1.312,2.728,2.775,2.728a1.427,1.427,0,0,0,1.565-1.478c0-.962-.6-1.488-1.57-1.892l-.392-.166c-1.058-.438-2.585-1.214-2.585-2.842,0-1.733,1.211-3,3.449-3a7.042,7.042,0,0,1,2.128.413c.105.625.192,1.382.329,2.539l-.608.075c-.35-1.215-.951-2.248-2.166-2.248a1.333,1.333,0,0,0-1.428,1.384c0,.915.715,1.341,1.6,1.7l.412.161c1.4.566,2.63,1.333,2.639,3.061,0,1.859-1.486,3.065-3.6,3.065A4.889,4.889,0,0,1,252.966,13.487ZM187.4,13.414c-.72-.632-1.13-1.707-1.13-3.437V6.636c0-1.462-.114-1.586-1.339-1.71V4.315h4.61v.611c-1.182.124-1.3.248-1.3,1.71V9.471c0,2.389.831,3.661,2.375,3.661,1.723,0,2.447-1.491,2.447-3.776V8.375a15.924,15.924,0,0,0-.143-2.6c-.1-.525-.492-.768-1.48-.85V4.315h3.828v.611c-.8.061-1.169.33-1.256.85a17.288,17.288,0,0,0-.142,2.6V9.628A5.018,5.018,0,0,1,192.8,13.11a3.754,3.754,0,0,1-2.793,1.109A3.9,3.9,0,0,1,187.4,13.414Zm-10.742.074c-.1-.353-.316-1.6-.484-2.692l.6-.084c.344,1.108,1.312,2.728,2.775,2.728a1.426,1.426,0,0,0,1.565-1.478c0-.962-.606-1.488-1.57-1.892l-.392-.166c-1.057-.438-2.585-1.214-2.585-2.842,0-1.733,1.212-3,3.45-3a7.029,7.029,0,0,1,2.127.413c.105.625.192,1.382.33,2.539l-.608.075c-.351-1.215-.952-2.248-2.167-2.248a1.333,1.333,0,0,0-1.427,1.384c0,.915.715,1.341,1.6,1.7l.413.161c1.4.566,2.629,1.333,2.639,3.061,0,1.859-1.487,3.065-3.6,3.065A4.886,4.886,0,0,1,176.661,13.487ZM135.43,9.355a4.94,4.94,0,0,1,4.88-5.289h.019a4.708,4.708,0,0,1,4.818,4.953,4.864,4.864,0,1,1-9.716.337Zm2.29-.466c0,2.718,1.086,4.551,2.767,4.551,1.326,0,2.407-.981,2.407-3.987,0-2.335-.927-4.609-2.741-4.609h-.02C138.785,4.844,137.721,6.3,137.721,8.888Zm-92.63,4.6c-.1-.353-.317-1.6-.485-2.692l.6-.084c.344,1.108,1.313,2.728,2.776,2.728a1.426,1.426,0,0,0,1.564-1.478c0-.962-.6-1.488-1.57-1.892L47.582,9.9C46.526,9.465,45,8.689,45,7.061c0-1.733,1.212-3,3.449-3a7.036,7.036,0,0,1,2.128.413c.1.625.192,1.382.329,2.539l-.608.075c-.35-1.215-.952-2.248-2.166-2.248A1.334,1.334,0,0,0,46.7,6.228c0,.915.715,1.341,1.6,1.7l.413.161c1.4.566,2.629,1.333,2.639,3.061,0,1.859-1.487,3.065-3.6,3.065A4.883,4.883,0,0,1,45.091,13.487ZM23.664,9.3c0-3.462,2.627-5.231,5.689-5.231a10.722,10.722,0,0,1,2.75.418c.058.5.115,1.361.234,2.729l-.61.047c-.481-1.916-1.48-2.415-2.709-2.415-1.669,0-3.087,1.367-3.087,4.128,0,2.339,1.03,4.468,3.282,4.468.573,0,1.121-.124,1.121-.884v-1.4c0-1.006-.067-1.13-1.654-1.28V9.253h4.468v.618c-.762.139-.839.206-.839,1.28v1.123a5.863,5.863,0,0,0,.123,1.348,13.5,13.5,0,0,1-3.318.6C25.826,14.219,23.664,12.231,23.664,9.3ZM10.725,14.116,2.993,3.689H2.954V8.573a25.764,25.764,0,0,0,.181,3.572c.114.77.625,1.121,1.895,1.208v.617H.215v-.617c1.01-.067,1.516-.419,1.628-1.171a24.509,24.509,0,0,0,.2-3.609V4.149c0-1.46-.022-1.786-.374-2.271A2.07,2.07,0,0,0,0,1.135V.517H3.1l7.562,9.864h.043v-4.5a25.686,25.686,0,0,0-.183-3.541c-.117-.764-.625-1.124-1.938-1.205V.517h4.8v.617c-.983.065-1.459.413-1.571,1.168a23.892,23.892,0,0,0-.189,3.577v8.235Zm194.269-.041-5.772-7.443-.02.013v3.2a18.078,18.078,0,0,0,.134,2.647c.071.523.5.778,1.5.865v.616h-3.842v-.616c.8-.067,1.193-.341,1.274-.865a18.976,18.976,0,0,0,.133-2.647V6.971c0-1.6-.319-1.922-1.62-2.04V4.315h3l5.225,6.527h.039V8.422a16.571,16.571,0,0,0-.144-2.637c-.081-.522-.506-.768-1.513-.854V4.315h3.876v.616c-.8.067-1.194.33-1.279.854a19.659,19.659,0,0,0-.139,2.637v5.652Zm-72.793,0-5.772-7.443-.02.013v3.2a18.076,18.076,0,0,0,.134,2.647c.071.523.5.778,1.5.865v.616H124.2v-.616c.8-.067,1.192-.341,1.273-.865a18.829,18.829,0,0,0,.133-2.647V6.971c0-1.6-.318-1.922-1.619-2.04V4.315h3l5.225,6.527h.039V8.422a16.881,16.881,0,0,0-.142-2.637c-.082-.522-.507-.768-1.515-.854V4.315h3.876v.616c-.8.067-1.193.33-1.278.854a19.658,19.658,0,0,0-.139,2.637v5.652Zm111.781-.1v-.616c1.315-.119,1.435-.232,1.435-1.746V5.1h-.532c-1.033,0-1.4.209-1.639.513a4.223,4.223,0,0,0-.581,1.485h-.6c.058-1.324.163-2.392.182-3.16h.344c.223.332.394.374.83.374h6.117a.722.722,0,0,0,.745-.374h.352c.009.7.1,2.185.172,3.127l-.607.041a3.5,3.5,0,0,0-.591-1.552,1.857,1.857,0,0,0-1.443-.455h-.771v6.505c0,1.514.12,1.627,1.494,1.746v.616Zm-6.167,0v-.616l.4-.062c.518-.081.627-.26.316-1.079l-.475-1.264h-3.069c-.109.306-.293.856-.437,1.389-.192.679-.042.863.488.95l.464.067v.616h-3.571v-.616c.843-.129,1.233-.25,1.768-1.6l3-7.555.817-.15,3.048,7.942c.435,1.148.817,1.262,1.678,1.365v.616Zm-2.572-3.877h2.516l-1.2-3.463h-.049Zm-8.158,3.877v-.625c1.3-.119,1.364-.192,1.355-1.552l-.022-5.982h-.057L225.1,13.8h-.481L221.636,5.99H221.6l-.131,3.776a22.691,22.691,0,0,0,0,2.675c.051.58.416.8,1.377.9v.625h-3.673v-.625c.836-.087,1.1-.327,1.219-.9a21.3,21.3,0,0,0,.262-2.637l.176-2.985c.106-1.729-.015-1.766-1.271-1.884V4.315h3.253l2.69,6.355,2.711-6.355h3.406v.626c-1.33.118-1.4.2-1.377,1.557l.11,5.295c.029,1.36.083,1.433,1.423,1.552v.625Zm-18.1,0v-.622c1.336-.119,1.436-.232,1.436-1.727V6.684c0-1.525-.1-1.65-1.3-1.748V4.315h7.317c.02.414.081,1.431.158,2.481l-.608.041a3.462,3.462,0,0,0-.562-1.278c-.211-.265-.645-.472-1.6-.472h-.869c-.545,0-.564,0-.564.561V8.52h1.342c1.134,0,1.189-.1,1.38-1.134h.607V10.57h-.607c-.191-1.086-.246-1.174-1.38-1.174h-1.342v2.133c0,.833.1,1.32.382,1.471a2.947,2.947,0,0,0,1.383.193,2.379,2.379,0,0,0,1.749-.514,4.97,4.97,0,0,0,.8-1.471l.617.049c-.1.766-.4,2.288-.516,2.714Zm-41.777,0v-.616c1.714-.129,1.89-.337,1.89-2.047V1.35h-.732c-1.55,0-2.032.3-2.312.671a5.736,5.736,0,0,0-.723,1.922H164.7c.084-1.47.191-2.848.229-3.944h.394a.931.931,0,0,0,1.018.517h7.628A.994.994,0,0,0,174.947,0h.4c.01.91.1,2.518.2,3.884l-.627.051a4.6,4.6,0,0,0-.728-2.014c-.337-.4-.9-.571-2.047-.571h-1.012v9.956c0,1.711.171,1.919,1.967,2.047v.616Zm-48.981,0v-.616c1.167-.124,1.287-.243,1.287-1.709V9.318H115.4v2.326c0,1.456.114,1.585,1.183,1.709v.616h-4.5v-.616c1.23-.114,1.345-.243,1.345-1.712V6.652c0-1.489-.114-1.592-1.382-1.721V4.315h4.595v.616c-1.125.129-1.239.232-1.239,1.719V8.417h4.112V6.649c0-1.486-.12-1.589-1.268-1.718V4.315H122.8V4.9c-1.2.16-1.32.264-1.32,1.752v4.99c0,1.469.124,1.588,1.32,1.712v.616Zm-27.5,0v-.616l.4-.062c.518-.081.626-.26.316-1.079l-.475-1.264H87.9c-.109.306-.294.856-.437,1.389-.193.679-.042.863.488.95l.463.067v.616h-3.57v-.616c.843-.129,1.233-.25,1.767-1.6l3-7.555.816-.15,3.048,7.942c.436,1.148.817,1.262,1.679,1.365v.616Zm-2.573-3.877h2.516l-1.2-3.463h-.049ZM79.61,13.97v-.625c1.3-.119,1.363-.192,1.354-1.552L80.943,5.81h-.057L77.629,13.8h-.481L74.161,5.99h-.038l-.131,3.776a22.565,22.565,0,0,0,0,2.675c.05.58.416.8,1.376.9v.625H71.7v-.625c.836-.087,1.1-.327,1.219-.9A21.238,21.238,0,0,0,73.18,9.81l.176-2.985c.106-1.729-.015-1.766-1.271-1.884V4.315h3.254l2.69,6.355L80.74,4.315h3.406v.626c-1.33.118-1.4.2-1.377,1.557l.11,5.295c.029,1.36.083,1.433,1.423,1.552v.625Zm-14.265,0v-.616c1.2-.119,1.327-.232,1.327-1.706v-5c0-1.495-.124-1.589-1.327-1.707V4.315h4.631v.616c-1.216.119-1.331.222-1.331,1.717v5c0,1.474.115,1.588,1.331,1.706v.616Zm-6.085,0v-.616c1.167-.124,1.286-.243,1.286-1.709V9.318H56.435v2.326c0,1.456.113,1.585,1.182,1.709v.616h-4.5v-.616c1.23-.114,1.345-.243,1.345-1.712V6.652c0-1.489-.114-1.592-1.382-1.721V4.315h4.6v.616c-1.126.129-1.239.232-1.239,1.719V8.417h4.111V6.649c0-1.486-.119-1.589-1.268-1.718V4.315H63.84V4.9c-1.2.16-1.32.264-1.32,1.752v4.99c0,1.469.124,1.588,1.32,1.712v.616Zm-19.735,0v-.616l.4-.062c.519-.081.627-.26.317-1.079l-.475-1.264H36.694c-.109.306-.294.856-.438,1.389-.192.679-.041.863.489.95l.464.067v.616h-3.57v-.616c.842-.129,1.233-.25,1.767-1.6l3-7.555.817-.15,3.048,7.942c.436,1.148.817,1.262,1.679,1.365v.616Zm-2.572-3.877h2.516l-1.2-3.463h-.049ZM18.621,13.97v-.616l.4-.062c.518-.081.626-.26.316-1.079l-.475-1.264H15.79c-.108.306-.293.856-.437,1.389-.192.679-.041.863.489.95l.463.067v.616h-3.57v-.616c.842-.129,1.233-.25,1.767-1.6l3-7.555.817-.15,3.048,7.942c.435,1.148.817,1.262,1.679,1.365v.616Zm-2.572-3.877h2.516l-1.2-3.463h-.049Z" transform="translate(0.5 0.5)" fill="#204068" stroke="rgba(0,0,0,0)" stroke-miterlimit="10" stroke-width="1"/>
</svg>
